<svg width="923" height="282" viewBox="0 0 923 282" fill="none" xmlns="http://www.w3.org/2000/svg">
<path d="M185 141L259.291 40.4718C275.702 18.2638 307.01 13.565 329.218 29.9768V29.9768C351.426 46.3886 356.125 77.6963 339.713 99.9043L265.423 200.432L185 141Z" fill="#6A3DBB"/>
<path d="M104.577 81.5675L30.2869 182.096C13.8751 204.304 18.5739 235.611 40.7819 252.023V252.023C62.99 268.435 94.2976 263.736 110.709 241.528L185 141L104.577 81.5675Z" fill="#CEB4FD"/>
<path d="M434.477 72C437.992 72.1302 440.987 73.4323 443.461 75.9062C445.935 78.25 447.237 81.1797 447.367 84.6953V118.438H507.914C517.029 118.568 524.516 121.172 530.375 126.25C536.365 131.198 540.596 136.797 543.07 143.047C545.674 149.427 546.977 156.003 546.977 162.773H547.172V196.758C547.172 200.404 545.805 203.464 543.07 205.938C540.466 208.281 537.341 209.453 533.695 209.453C525.883 208.802 521.586 204.57 520.805 196.758V162.578C520.805 160.104 520.284 157.5 519.242 154.766C518.331 152.031 516.964 149.688 515.141 147.734C513.318 145.651 511.169 144.609 508.695 144.609H447.367V197.148C446.586 204.961 442.289 209.193 434.477 209.844C430.831 209.844 427.641 208.672 424.906 206.328C422.302 203.854 421 200.794 421 197.148V84.6953C421.13 81.0495 422.497 78.0547 425.102 75.7109C427.706 73.237 430.831 72 434.477 72Z" fill="#7D45E2"/>
<path d="M680.961 196.758V149.688C680.961 146.432 679.268 144.74 675.883 144.609H607.523C605.049 144.74 602.901 145.846 601.078 147.93C599.255 149.883 597.888 152.227 596.977 154.961C596.195 157.565 595.805 160.234 595.805 162.969C595.805 165.573 596.195 168.242 596.977 170.977C597.888 173.581 599.255 175.924 601.078 178.008C602.901 179.961 605.049 180.938 607.523 180.938H657.523C661.169 180.938 664.229 182.24 666.703 184.844C669.307 187.318 670.609 190.378 670.609 194.023C670.609 197.669 669.307 200.729 666.703 203.203C664.229 205.807 661.169 207.109 657.523 207.109H608.305C599.19 206.979 591.638 204.44 585.648 199.492C579.789 194.414 575.557 188.75 572.953 182.5C570.479 176.12 569.242 169.544 569.242 162.773C569.242 156.263 570.544 149.883 573.148 143.633C575.753 137.253 579.984 131.589 585.844 126.641C591.703 121.562 600.362 118.828 611.82 118.438H693.852C697.497 118.438 700.622 119.674 703.227 122.148C705.831 124.492 707.198 127.487 707.328 131.133V196.758C707.328 200.404 705.961 203.464 703.227 205.938C700.622 208.281 697.497 209.453 693.852 209.453C686.039 208.802 681.742 204.57 680.961 196.758Z" fill="#7D45E2"/>
<path d="M746 72C749.516 72.1302 752.51 73.4323 754.984 75.9062C757.458 78.25 758.76 81.1797 758.891 84.6953V197.148C758.109 204.961 753.813 209.193 746 209.844C742.354 209.844 739.164 208.672 736.43 206.328C733.826 203.854 732.523 200.794 732.523 197.148V84.6953C732.654 81.0495 734.021 78.0547 736.625 75.7109C739.229 73.237 742.354 72 746 72Z" fill="#7D45E2"/>
<path d="M824.125 207.109C812.667 206.719 804.008 204.049 798.148 199.102C792.289 194.023 788.057 188.359 785.453 182.109C782.849 175.729 781.547 169.284 781.547 162.773C781.547 156.003 782.784 149.492 785.258 143.242C787.862 136.862 792.094 131.198 797.953 126.25C803.943 121.172 811.495 118.568 820.609 118.438H883.891C893.005 118.568 900.492 121.172 906.352 126.25C912.341 131.198 916.573 136.862 919.047 143.242C921.651 149.492 922.953 156.003 922.953 162.773C922.953 169.284 921.651 175.729 919.047 182.109C916.443 188.359 912.211 194.023 906.352 199.102C900.492 204.049 891.833 206.719 880.375 207.109H824.125ZM819.828 144.609C817.354 144.609 815.206 145.651 813.383 147.734C811.56 149.688 810.193 152.031 809.281 154.766C808.5 157.37 808.109 159.974 808.109 162.578C808.109 165.312 808.5 168.047 809.281 170.781C810.193 173.385 811.56 175.729 813.383 177.812C815.206 179.766 817.354 180.807 819.828 180.938H884.672C887.146 180.807 889.294 179.766 891.117 177.812C892.94 175.729 894.242 173.385 895.023 170.781C895.935 168.047 896.391 165.312 896.391 162.578C896.391 159.974 895.935 157.37 895.023 154.766C894.242 152.031 892.94 149.688 891.117 147.734C889.294 145.651 887.146 144.609 884.672 144.609H819.828Z" fill="#7D45E2"/>
<circle cx="185" cy="141" r="100" transform="rotate(-53.5355 185 141)" fill="#7D45E2"/>
<path d="M244.432 60.5775C244.432 60.5775 217.824 96.5839 185 141C152.176 185.416 125.568 221.423 125.568 221.423C81.1514 188.599 71.7538 125.984 104.577 81.5676C137.401 37.1515 200.016 27.7539 244.432 60.5775Z" fill="#C4A3FF"/>
</svg>
